<svg width="26" height="24" viewBox="0 0 26 24" fill="none" xmlns="http://www.w3.org/2000/svg">
<path d="M17.0717 12.75H8.98963C8.57542 12.75 8.23193 12.41 8.23193 12C8.23193 11.59 8.57542 11.25 8.98963 11.25H17.0717C17.4859 11.25 17.8294 11.59 17.8294 12C17.8294 12.41 17.4859 12.75 17.0717 12.75Z" fill="black"/>
<path d="M13.0306 16.75C12.6164 16.75 12.2729 16.41 12.2729 16V8C12.2729 7.59 12.6164 7.25 13.0306 7.25C13.4448 7.25 13.7883 7.59 13.7883 8V16C13.7883 16.41 13.4448 16.75 13.0306 16.75Z" fill="black"/>
<path d="M16.0614 22.75H9.9999C4.51421 22.75 2.17041 20.43 2.17041 15V9C2.17041 3.57 4.51421 1.25 9.9999 1.25H16.0614C21.5471 1.25 23.8909 3.57 23.8909 9V15C23.8909 20.43 21.5471 22.75 16.0614 22.75ZM9.9999 2.75C5.34262 2.75 3.68579 4.39 3.68579 9V15C3.68579 19.61 5.34262 21.25 9.9999 21.25H16.0614C20.7187 21.25 22.3755 19.61 22.3755 15V9C22.3755 4.39 20.7187 2.75 16.0614 2.75H9.9999Z" fill="black"/>
</svg>
