<svg width="25" height="26" viewBox="0 0 25 26" fill="none" xmlns="http://www.w3.org/2000/svg">
<path fill-rule="evenodd" clip-rule="evenodd" d="M0.122559 25.0013H24.3026V0.821289H0.122559V25.0013ZM7.64533 23.3893H1.73467V17.4787H7.64533V23.3893ZM15.168 17.4787H9.25733V23.3893H15.168V17.4787ZM16.78 17.4787H22.6907V23.3893H16.78V17.4787ZM7.64533 9.956H1.73467V15.8667H7.64533V9.956ZM9.25733 9.956H15.168V15.8667H9.25733V9.956ZM22.6907 9.956H16.78V15.8667H22.6907V9.956ZM22.6907 2.43333V8.344H16.78V2.43333H22.6907ZM7.64533 2.43333H1.73467V8.344H7.64533V2.43333ZM9.25733 2.43333H15.168V8.344H9.25733V2.43333Z" fill="#262626"/>
</svg>
