<svg width="25" height="24" viewBox="0 0 25 24" fill="none" xmlns="http://www.w3.org/2000/svg">
<path fill-rule="evenodd" clip-rule="evenodd" d="M22.3794 11.5358V22H16.1538V17C16.1538 14.7909 14.3629 13 12.1538 13C9.94466 13 8.1538 14.7909 8.1538 17V22H2.17432L2.17432 11.5358L12.2769 2L22.3794 11.5358Z" fill="black"/>
<path d="M22.3794 22V22.5H22.8794V22H22.3794ZM22.3794 11.5358H22.8794V11.3202L22.7227 11.1722L22.3794 11.5358ZM16.1538 22H15.6538V22.5H16.1538V22ZM8.1538 22V22.5H8.6538V22H8.1538ZM2.17432 22H1.67432V22.5H2.17432L2.17432 22ZM2.17432 11.5358L1.83111 11.1722L1.67432 11.3202V11.5358H2.17432ZM12.2769 2L12.6201 1.63639L12.2769 1.31244L11.9337 1.63639L12.2769 2ZM22.8794 22V11.5358H21.8794V22H22.8794ZM16.1538 22.5H22.3794V21.5H16.1538V22.5ZM16.6538 22V17H15.6538L15.6538 22H16.6538ZM16.6538 17C16.6538 14.5147 14.6391 12.5 12.1538 12.5V13.5C14.0868 13.5 15.6538 15.067 15.6538 17H16.6538ZM12.1538 12.5C9.66852 12.5 7.6538 14.5147 7.6538 17H8.6538C8.6538 15.067 10.2208 13.5 12.1538 13.5V12.5ZM7.6538 17V22H8.6538V17H7.6538ZM2.17432 22.5H8.1538V21.5H2.17432L2.17432 22.5ZM1.67432 11.5358L1.67432 22H2.67432L2.67432 11.5358H1.67432ZM11.9337 1.63639L1.83111 11.1722L2.51752 11.8994L12.6201 2.36361L11.9337 1.63639ZM22.7227 11.1722L12.6201 1.63639L11.9337 2.36361L22.0362 11.8994L22.7227 11.1722Z" fill="black"/>
</svg>
