<svg width="24" height="24" viewBox="0 0 24 24" fill="none" xmlns="http://www.w3.org/2000/svg">
<path d="M8.5 10.5002H15.5M7 18.4302H11L15.45 21.3902C15.6002 21.4903 15.7747 21.5478 15.955 21.5564C16.1353 21.5651 16.3145 21.5247 16.4736 21.4395C16.6328 21.3543 16.7658 21.2275 16.8585 21.0727C16.9512 20.9178 17.0001 20.7407 17 20.5602V18.4302C20 18.4302 22 16.4302 22 13.4302V7.43018C22 4.43018 20 2.43018 17 2.43018H7C4 2.43018 2 4.43018 2 7.43018V13.4302C2 16.4302 4 18.4302 7 18.4302Z" stroke="black" stroke-width="1.5" stroke-miterlimit="10" stroke-linecap="round" stroke-linejoin="round"/>
</svg>
